<?xml version="1.0" encoding="utf-8"?>
<!-- Generator: Adobe Illustrator 26.5.0, SVG Export Plug-In . SVG Version: 6.00 Build 0)  -->
<svg version="1.1" id="Layer_1" xmlns="http://www.w3.org/2000/svg" xmlns:xlink="http://www.w3.org/1999/xlink" x="0px" y="0px"
	 viewBox="0 0 792 612" style="enable-background:new 0 0 792 612;" xml:space="preserve">
<style type="text/css">
	.st0{fill:#6CBE45;}
	.st1{fill:#F57F20;}
	.st2{fill:#65448B;}
</style>
<g>
	<path class="st0" d="M769.6,407.2c-0.1,0.4-0.3,0.8-0.4,1.2c-1,5.4-4.3,8.5-9.7,8.6c-10.5,0.2-21.1,0.1-31.6,0
		c-2.5,0-4.5-1.3-5.2-3.7c-0.8-2.6-1.1-5.4-1.5-8.1c-0.1-0.8-0.1-1.7-0.1-2.5c0-99.1,0-198.1,0-297.2c0-1.1,0-2.1,0.1-3.2
		c0.5-3.4,2-4.8,5.3-5.4c0.5-0.1,1-0.3,1.5-0.4c4.5,0,8.9,0,13.4,0c0.6,0.1,1.1,0.3,1.7,0.3c6.4,0.1,12.7,0.3,19.1,0.4
		c3.7,0.1,5.7,1.7,6.6,5.2c0.3,1,0.5,2.1,0.7,3.1C769.6,206,769.6,306.6,769.6,407.2z"/>
	<path class="st0" d="M613.5,325.3c-20.3,0-40.7,0-61,0c-3.1,0-6.2,0.6-9.3,1c-0.5,0.1-1,0.3-1.5,0.5c-4.1,1.6-5.8,4.6-4.4,8.8
		c1.2,3.7,2.9,7.2,4.8,10.6c10.1,18,24.8,29.9,45.1,34.4c9.8,2.2,19.7,2.3,29.7,1.3c15.1-1.5,29.5-6,43.7-11
		c1.9-0.7,3.6-1.6,5.4-2.3c1.4-0.5,3-0.8,4.5-1c3.4-0.4,5.9,1.2,7.1,4.4c1.4,3.7,1.3,7.6,1.2,11.5c-0.1,4-0.3,8.1-0.6,12.1
		c-0.3,4.9-2.3,8.8-6.9,11.1c-2.2,1.1-4.5,2.2-6.9,3c-14.2,4.3-28.6,7.6-43.3,9.5c-19.4,2.4-38.7,1.8-57.4-4.3
		c-27.4-9-48.6-25.7-62.5-51.1c-6-11-9.6-22.8-11.1-35.3c-0.6-5.2-1.1-10.4-1.1-15.6c-0.1-12.4,1-24.8,4.6-36.8
		c2.9-9.7,7.8-18.6,13.6-27c15.7-22.8,37.3-36.5,64.3-42.1c8.5-1.7,17.2-2.7,25.9-2.2c25.6,1.6,48.3,10.3,66.2,29.3
		c11.5,12.2,18.5,26.9,22.6,43.1c3.1,11.9,4.4,24,4.1,36.3c0,1.3-0.2,2.7-0.5,3.9c-1.2,5.3-4.1,7.8-9.5,7.9c-3.3,0.1-6.7-0.1-10-0.1
		C651.3,325.3,632.4,325.3,613.5,325.3z M595.8,293.5c0,0,0,0.1,0,0.1c12.5,0,25,0.1,37.5,0c2.6,0,5.2-0.3,7.7-1
		c2.8-0.8,4.1-2.9,4-5.8c-0.1-5.6-2.3-10.5-5.3-15c-5.2-7.8-11.9-14.1-19.9-19.1c-16.1-10.2-32.8-11.7-50-2.8
		c-9,4.7-16.4,11.4-23.1,18.9c-3.3,3.7-5.9,7.7-7,12.5c-1.1,4.9,0.7,8.5,5.3,10.4c0.9,0.4,1.9,0.8,2.9,0.9c2.8,0.4,5.7,0.9,8.5,0.9
		C569.6,293.5,582.7,293.5,595.8,293.5z"/>
	<path class="st1" d="M22.4,226.6c0.9,0,1.5,0,2,0c16.2,0,32.4,0,48.5,0c1.4,0,2.2,0.4,3,1.5c53.4,69.9,106.8,139.8,160.2,209.7
		c15.6,20.4,31.2,40.8,46.8,61.3c0.3,0.4,0.7,0.9,1.2,1.7c-0.9,0-1.5,0-2,0c-16.8,0-33.6,0-50.5,0c-1.3,0-2-0.4-2.8-1.4
		c-22.3-29.6-44.6-59.1-66.9-88.7c-3.9-5.2-7.9-10.5-11.8-15.7c-4.4-5.9-10.3-7.2-16.5-3.4c-3.3,2-6.3,4.7-9.3,7.2
		c-8.7,7.1-17.4,14.2-26.2,21.2c-0.6,0.5-1.5,0.9-2.3,0.9c-20.4,0-40.8,0-61.2,0c-0.4,0-0.7,0-1.4-0.1c0.6-0.6,1-1,1.5-1.3
		c22.2-18.2,44.4-36.5,66.6-54.8c2.4-2,4.7-4.3,6.8-6.7c2.8-3.3,3.4-7.2,2.2-11.4c-1.5-4.9-4.1-9.2-7.1-13.3
		c-10-13.5-20.1-26.9-30.2-40.2c-16.5-21.7-33-43.4-49.5-65C23.2,227.7,22.9,227.3,22.4,226.6z"/>
	<path class="st0" d="M277.7,224.2c-2.6,2.2-5,4.1-7.4,6.1c-20.5,16.8-41,33.6-61.4,50.5c-1.8,1.5-3.5,3.1-5.1,4.8
		c-4,4.3-4.9,9.4-2.4,14.6c2.2,4.5,4.6,8.9,7.5,12.9c15.6,21,31.5,41.8,47.3,62.7c10.5,13.8,21,27.6,31.5,41.4
		c0.2,0.2,0.3,0.4,0.6,0.9c-0.7,0.1-1.2,0.1-1.7,0.1c-16.3,0-32.6,0-48.9,0c-1.2,0-1.9-0.5-2.6-1.4c-17.2-22.6-34.5-45.2-51.7-67.7
		c-35-45.8-70-91.6-105-137.4c-16.7-21.9-33.4-43.7-50.1-65.6c-0.4-0.5-0.8-1.1-1.5-2c0.9,0,1.5,0,2,0c16.6,0,33.2,0,49.8,0
		c1.6,0,2.6,0.6,3.6,1.8c19.5,25.8,39,51.7,58.4,77.5c6.7,8.9,13.4,17.8,20.1,26.6c4.4,5.9,10.3,7.2,16.5,3.2
		c4.1-2.6,7.8-6,11.7-9.1c8-6.4,15.9-12.9,24-19.4c0.6-0.5,1.5-0.8,2.3-0.8c20.2,0,40.5,0,60.7,0C276.5,224,276.9,224.1,277.7,224.2
		z"/>
	<path class="st0" d="M466.8,237.6c0,4.5,0,8.9,0,13.4c0,0.6-0.2,1.3-0.3,1.9c-1.2,5-4.2,7-9.3,6.1c-2.2-0.4-4.4-1.1-6.6-2
		c-11.2-4.5-22.8-7.1-34.8-8.3c-10-1-20-0.4-29.7,2.5c-15.8,4.7-27.3,14.8-36,28.6c-8.1,12.9-11.5,26.9-10.4,42
		c0.9,13.4,6.1,24.9,14.8,35c11,12.7,25.1,19.1,41.4,21.4c19.3,2.6,38.1,0.4,56.4-6.1c1.6-0.6,3.2-1.5,4.8-2.1
		c1.6-0.7,3.2-1.4,4.9-1.7c4.6-1,7.5,1,7.7,5.7c0.3,7.3,0.2,14.6,0.3,21.8c0,1.6-0.3,3.3-0.4,4.9c-0.4,4.3-2.7,7.1-6.7,8.7
		c-7.8,3.3-15.8,5.7-24,7.5c-8.6,1.9-17.3,3-26.1,3.3c-22,0.8-43.3-2.7-63.2-12.1c-20.3-9.6-35.6-24.7-46-44.6
		c-6.2-11.8-10-24.4-11.1-37.7c-0.5-6.5-0.2-13.2,0.2-19.7c0.7-10,2.6-19.8,5.7-29.4c6.8-20.8,19.4-37.2,36.8-50.3
		c13.2-10,28.1-15.4,44.1-18.2c9.7-1.7,19.6-2.2,29.4-1.8c14.5,0.5,28.8,2.5,42.8,6.7c3.4,1,6.7,2.7,9.9,4.4c4,2.2,5.8,5.8,5.6,10.5
		c-0.2,3.2,0,6.4,0,9.6C467,237.6,466.9,237.6,466.8,237.6z"/>
	<path class="st2" d="M365.9,459.1c-2,5.8-4,11.6-6.1,17.4c-2.7,7.7-5.4,15.4-8,23.1c-0.4,1.1-0.9,1.4-2.1,1.4c-4.7,0-4.7,0-6.2-4.3
		c-4.2-12.3-8.3-24.6-12.5-36.8c-0.2-0.5-0.4-1.1-0.9-1.6c0,0.5,0,1,0,1.6c0,13,0,26.1,0,39.1c0,2.1,0,2.1-2.2,2.1
		c-4.5,0-4.5,0-4.5-4.4c0-15.2,0-30.3,0-45.5c0-2.1,0-2.1,2.1-2.1c2.3,0,4.6,0.1,6.9,0c1.2,0,1.6,0.4,2,1.5c4.5,13.5,9,27,13.5,40.6
		c0.2,0.5,0.3,1,0.6,1.9c0.3-0.7,0.5-1.1,0.6-1.5c4.7-13.6,9.4-27.2,14-40.9c0.4-1.2,1-1.5,2.2-1.5c2.5,0.1,5,0,7.6,0
		c0.1,0.7,0.1,1.3,0.1,1.8c0,16.1,0,32.1,0,48.2c0,1.7-0.5,2.2-2.1,2c-1.5-0.2-3.6,0.4-4.3-0.4c-0.8-0.9-0.4-2.9-0.4-4.4
		c0-11.8,0-23.5,0-35.3c0-0.6,0-1.3,0-1.9C366.1,459.1,366,459.1,365.9,459.1z"/>
	<path class="st2" d="M614.2,484.4c-1.7,9.1-8.2,15.5-16.3,16.9c-4.3,0.8-8.7,0.7-13-0.4c-5.5-1.4-9.7-4.6-12.4-9.6
		c-4.9-9.2-5.6-18.9-2-28.7c3.3-8.9,11.6-14.3,21.4-14.5c5.7-0.1,10.9,1.1,15.3,4.9c3.1,2.7,5.1,6.1,6.3,10.3
		c-2.2,0.5-4.3,1-6.4,1.4c-0.2,0-0.5-0.2-0.6-0.4c-0.1-0.1-0.2-0.4-0.2-0.6c-3.1-7.4-7.2-10-15-9.7c-6.9,0.3-12.2,4.5-14.2,11.3
		c-2,6.4-1.8,12.9,0.1,19.3c3.4,11.3,15.7,13.1,22.6,9.4c3.9-2.1,6.2-5.5,7.3-9.7c0.4-1.6,1-1.8,2.4-1.3
		C610.9,483.6,612.6,484,614.2,484.4z"/>
	<path class="st2" d="M441.7,467.1c0-6.1,0-12,0-18c2.2,0,4.2,0,6.4,0c0,0.7,0.1,1.3,0.1,2c0,16,0,31.9,0,47.9c0,1.5-0.3,2.3-2,2.1
		c-1.2-0.2-2.9,0.3-3.7-0.4c-0.7-0.6-0.4-2.4-0.5-3.7c-0.1,0-0.3,0-0.4,0.1c-4.5,6.5-15.2,5.8-20.4,0.5c-3.7-3.7-5.3-8.2-5.7-13.2
		c-0.4-4.5,0.2-8.9,2.1-13.1c4.2-9.8,17.2-11.7,23.4-4.8C441,466.6,441.2,466.7,441.7,467.1z M442.6,482.4c-0.6-2.8-1-5.9-2-8.7
		c-1.4-3.6-4.3-5.8-8.3-5.9c-3.9-0.1-6.9,1.8-8.4,5.2c-2.5,5.9-2.6,12,0.1,17.9c1.6,3.5,4.6,5.5,8.5,5.4c4.1-0.1,7.1-2.4,8.4-6.2
		C441.7,487.8,442,485.2,442.6,482.4z"/>
	<path class="st2" d="M533.7,501c-1.7,0-3.6,0.1-5.5,0c-0.4,0-0.9-0.5-1.1-0.9c-0.4-1-0.7-2.1-1.1-3.4c-0.6,0.4-1.1,0.7-1.5,1.1
		c-4.8,3.7-10.3,4.7-16.1,3.7c-4.8-0.8-8.2-4.3-8.7-8.6c-0.7-5.1,1.4-9.6,6.1-11.5c3.1-1.3,6.6-1.6,9.9-2.3c2.9-0.6,5.8-1.1,8.8-1.6
		c0.9-0.2,1.3-0.7,1.3-1.7c0.1-4.9-2-7.3-7-7.8c-1.4-0.1-2.8-0.1-4.1,0c-3.6,0.2-6.1,2.1-7.1,5.6c-0.3,1.2-0.9,1.5-2.1,1.3
		c-1.5-0.3-3-0.5-4.7-0.7c0.8-4.1,2.4-7.5,6.2-9.3c6.2-3,12.7-3.2,19.2-1c3.6,1.2,5.7,4,5.9,7.8c0.3,5.4,0.2,10.8,0.3,16.3
		c0,1.8-0.1,3.5,0.1,5.3C532.7,495.7,533.2,498.2,533.7,501z M525.5,482.3c-1.5,0.4-2.9,0.8-4.4,1.1c-1.4,0.3-2.9,0.6-4.4,0.8
		c-1.9,0.3-3.8,0.6-5.6,1.1c-3.1,0.8-4.9,3.1-4.7,5.8c0.2,2.8,2.3,5,5.4,5.4C519.4,497.5,527,493.6,525.5,482.3z"/>
	<path class="st2" d="M765.1,483.9c-9.6,0-18.8,0-27.9,0c-0.8,4.9,2.8,10.5,7.5,12.1c5.2,1.7,10.2-0.2,12.4-5.2
		c0.8-1.8,1.8-2.1,3.5-1.7c1.3,0.3,2.6,0.4,4.1,0.6c-1.6,5.7-4.9,9.7-10.6,11.4c-3.7,1.1-7.6,1.1-11.4,0.2
		c-7.2-1.8-11.8-7.5-12.5-15.5c-0.3-3.9-0.2-7.8,1-11.5c2.5-7.8,9.3-12.2,17.9-11.6c7.8,0.5,13.8,5.9,15.2,14
		C764.8,478.8,764.9,481.2,765.1,483.9z M757.9,478.3c0-6.5-4.7-10.9-11.1-10.5c-5.2,0.3-10,5.6-9.3,10.5
		C744.3,478.3,751.1,478.3,757.9,478.3z"/>
	<path class="st2" d="M623.7,483.8c0,8.1,5.6,13.7,13.1,12.5c3.7-0.6,6-2.9,7.4-6.2c0.4-1,1-1.4,2-1.2c1.7,0.3,3.4,0.5,5,0.7
		c-0.6,5.2-5.2,10.3-11.1,11.6c-5.8,1.3-11.5,1-16.5-2.7c-4.4-3.2-6.2-7.9-6.7-13.1c-0.4-3.7-0.1-7.4,1-11.1
		c2.5-7.7,8.9-12.1,17.3-11.9c7.8,0.2,13.7,5.1,15.6,12.9c0.5,2.2,0.6,4.5,0.8,6.8c0.2,1.3-0.4,1.7-1.7,1.7c-8.1-0.1-16.2,0-24.3,0
		C625.1,483.8,624.5,483.8,623.7,483.8z M644.6,478.3c0.4-5.8-4.2-10.5-10.1-10.5c-5.8,0-10.7,4.9-10.3,10.5
		C630.9,478.3,637.7,478.3,644.6,478.3z"/>
	<path class="st2" d="M385.2,483.8c-0.8,4.9,2.7,10.5,7.5,12.1c5.2,1.7,10.2-0.2,12.4-5.2c0.8-1.7,1.7-2.2,3.4-1.8
		c1.3,0.3,2.7,0.4,4.2,0.6c-1,3.9-3,6.9-6.1,9.3c-5.6,4.2-18.1,4.2-23.7-2.3c-2.2-2.5-3.6-5.4-4.2-8.6c-0.8-4.2-0.7-8.4,0.3-12.5
		c2-8.4,8.8-13.3,17.7-13c8.2,0.3,14.5,5.9,15.8,14.2c0.3,1.9,0.3,3.8,0.4,5.7c0.1,1.2-0.5,1.5-1.6,1.5c-8.1,0-16.2,0-24.3,0
		C386.4,483.8,385.8,483.8,385.2,483.8z M385.5,478.3c6.8,0,13.6,0,20.4,0c-0.1-6.6-4.8-10.9-11.3-10.4
		C389.5,468.2,384.8,473.5,385.5,478.3z"/>
	<path class="st2" d="M662.4,468.1c4.8-5.7,10.5-6.8,17.1-4.9c4.7,1.4,7.2,4.8,7.4,9.5c0.3,9,0.2,18,0.3,27c0,1-0.4,1.3-1.4,1.3
		c-1.2,0-2.3-0.1-3.5,0c-1.4,0.1-1.7-0.4-1.7-1.7c0-6.6,0-13.3,0-19.9c0-1.9-0.1-3.8-0.4-5.7c-0.5-3.1-2.5-4.8-5.4-5.4
		c-4.6-0.9-10.8,1-11.6,8c-0.3,3-0.3,6-0.3,9.1c0,4.7,0,9.5,0,14.2c0,1.1-0.3,1.5-1.4,1.5c-5,0.1-5,0.1-5-4.9c0-10.3,0-20.5,0-30.8
		c0-1.6,0.4-2.1,2-2.1c3.7,0.1,3.7,0,3.8,3.7C662.3,467.3,662.3,467.5,662.4,468.1z"/>
	<path class="st2" d="M493,487.1c2.1,0.3,4,0.5,6.2,0.8c-0.6,4.1-2.2,7.4-5.1,10.1c-6.8,6.3-22.7,5.4-26.5-7.6
		c-1.8-5.9-1.7-11.8,0.4-17.6c2.6-7.4,10-11.5,18.3-10.3c6.1,0.9,10.2,4,12,9.9c0.2,0.5,0.2,1.1,0.4,1.9c-1.9,0.3-3.8,0.6-5.6,0.8
		c-0.3,0-0.7-0.6-1-1c-0.8-1.3-1.3-2.9-2.3-4c-4-4.3-11.8-3-14.7,2.5c-0.8,1.6-1.4,3.4-1.6,5.1c-0.6,4-0.6,8.1,0.8,12
		c1.8,5.1,6.7,7.7,11.9,6.3c3.3-0.9,5.2-3.1,6.2-6.3C492.5,489,492.7,488.1,493,487.1z"/>
	<path class="st2" d="M701.5,450c0,1,0,1.6,0,2.1c0,3,0,6.1,0,9.1c0,2,0,2,2.1,2.1c1.1,0,2.1,0,3.2,0c0.3,0,0.9,0.3,1,0.5
		c0.1,1.3,0.1,2.6,0,3.8c0,0.2-0.7,0.6-1.1,0.6c-1.3,0.1-2.7,0.1-4,0c-0.9,0-1.2,0.3-1.2,1.2c0,7.6,0,15.1,0,22.7
		c0,2.1,1.1,3,3.2,3.1c3.1,0.1,3.1,0.1,3.6,3.1c0.1,0.5,0.3,1.1,0.2,1.6c-0.1,0.4-0.5,1-0.8,1c-2.6,0.1-5.2,0.3-7.7-0.1
		c-3-0.5-4.5-2.8-4.8-6.1c-0.2-1.8-0.2-3.6-0.2-5.4c0-6.2,0-12.3,0-18.5c0-2.5,0-2.5-2.4-2.5c-0.6,0-1.3,0-2.2,0
		c0-1.6-0.1-3,0.1-4.4c0-0.3,0.7-0.6,1.2-0.7c3.3-0.2,3.4-0.2,3.4-3.6c0-0.4,0-0.9,0-1.3c0.1-1.5-0.4-3.6,0.4-4.4
		C696.9,452.4,699.2,451.5,701.5,450z"/>
	<path class="st2" d="M538.9,449c2,0,3.7-0.1,5.4,0c0.4,0,0.8,0.6,1,1c0.2,0.3,0,0.7,0,1.1c0,15.9,0,31.8,0,47.7
		c0,2.2,0,2.2-2.1,2.2c-4.3,0-4.3,0-4.3-4.3c0-15.1,0-30.3,0-45.4C538.9,450.6,538.9,449.9,538.9,449z"/>
	<path class="st2" d="M716.9,468c1.9-2.6,3.7-5.2,7.2-5.5c2.7-0.3,5.1,0.5,7.5,2.1c-0.7,1.9-1.4,3.8-2.1,5.8c-1-0.3-1.8-0.7-2.6-0.9
		c-3.7-1-7,0.6-8.1,4.2c-0.7,2.7-1.1,5.5-1.2,8.3c-0.2,5.7-0.1,11.5,0,17.2c0,1.3-0.3,1.9-1.7,1.9c-4.7,0-4.7,0-4.7-4.6
		c0-10.4,0-20.8,0-31.3c0-1.5,0.4-1.9,1.9-1.9c3.8,0.1,3.8,0,3.9,3.8C716.8,467.4,716.9,467.7,716.9,468z"/>
	<path class="st2" d="M461.6,482.3c0,5.7,0,11.4,0,17.1c0,1.3-0.4,1.7-1.7,1.7c-4.7,0-4.7,0-4.7-4.6c0-10.4,0-20.7,0-31.1
		c0-1.7,0.5-2.1,2.1-2c4.4,0.1,4.4,0,4.4,4.3C461.6,472.5,461.6,477.4,461.6,482.3z"/>
	<path class="st2" d="M461.6,452.7c0,3.7,0,3.7-3.3,3.7c-3.1,0-3.1,0-3.1-3.3c0-4.1,0-4.1,4-4.1c2.6,0,2.3-0.3,2.4,2.4
		C461.6,451.8,461.6,452.3,461.6,452.7z"/>
</g>
<image style="overflow:visible;" width="2339" height="1269" xlink:href="C:\Users\User\Documents\Received Files\Xcel Logo.png"  transform="matrix(0.2205 0 0 0.2205 -1079.5188 68.7895)">
</image>
</svg>
